<?xml version="1.0" encoding="utf-8"?>
<!-- Generator: Adobe Illustrator 21.0.0, SVG Export Plug-In . SVG Version: 6.00 Build 0)  -->
<svg xmlns="http://www.w3.org/2000/svg" xmlns:xlink="http://www.w3.org/1999/xlink" version="1.1" id="Layer_1" x="0px" y="0px" viewBox="0 0 64 64" style="enable-background:new 0 0 64 64;" xml:space="preserve" width="512" height="512">
<style type="text/css">
	.st0{fill:#74D5E8;}
	.st1{fill:#10BDE0;}
	.st2{fill:#E39D10;}
</style>
<g>
	<path class="st0" d="M39,18c0-8.3,3.1-15,7-15c-8.2-0.1-14.9,6.6-15,14.8c0,0.7,0,1.5,0.1,2.2c2.2-2.2,5.7-2.2,7.9,0c0,0,0,0,0,0   C39,19.3,39,18.7,39,18z"/>
	<path class="st0" d="M46,3c3.9,0,7,6.7,7,15c0,0.7,0,1.3,0,2c2.2-2.2,5.7-2.2,7.9,0c0,0,0,0,0,0C62,11.9,56.3,4.3,48.2,3.1   C47.5,3,46.7,3,46,3z"/>
	<path class="st1" d="M53,18c0-8.3-3.1-15-7-15s-7,6.7-7,15c0,0.7,0,1.3,0,2c4.3-2.5,9.6-2.5,14,0C53,19.3,53,18.7,53,18z"/>
	<path class="st1" d="M56.9,50.4l4.1-0.9v-5l-4.1-0.9c-0.7-0.1-1.1-0.8-1-1.5c0-0.2,0.1-0.3,0.2-0.5l2.4-3.5l-3.8-3.8l-3.5,2.4   c-0.6,0.4-1.3,0.2-1.7-0.3c-0.1-0.1-0.2-0.3-0.2-0.5L48.5,32h-5l-0.9,4.1c-0.1,0.7-0.8,1.1-1.5,1c-0.2,0-0.3-0.1-0.5-0.2l-3.5-2.4   l-2.4,2.4l-1.3,1.3l2.4,3.5c0.4,0.6,0.2,1.3-0.3,1.7c-0.1,0.1-0.3,0.2-0.5,0.2L31,44.5v5l4.1,0.9c0.7,0.1,1.1,0.8,1,1.5   c0,0.2-0.1,0.3-0.2,0.5l-2.4,3.5l2.4,2.4l1.4,1.4l3.5-2.4c0.6-0.4,1.3-0.2,1.7,0.3c0.1,0.1,0.2,0.3,0.2,0.5l0.9,4.1h5l0.9-4.1   c0.1-0.7,0.8-1.1,1.5-1c0.2,0,0.3,0.1,0.5,0.2l3.5,2.4l3.8-3.8l-2.4-3.5c-0.4-0.6-0.3-1.3,0.3-1.7C56.6,50.5,56.7,50.4,56.9,50.4z    M46,53c-3.3,0-6-2.7-6-6s2.7-6,6-6s6,2.7,6,6S49.3,53,46,53z"/>
	<path class="st2" d="M35.1,50.4L31,49.5v-5l4.1-0.9c0.7-0.1,1.1-0.8,1-1.5c0-0.2-0.1-0.3-0.2-0.5l-2.4-3.5l1.3-1.3   C33,35.2,31.1,33.5,29,32h-2l7-9l-8,2l2-5l-7,3l-6-4l1.9,5L10,22l7,10h-2c-3.6,2.7-12,9.3-12,16c0,10.5,8.5,13,19,13   c5.5,0,10.4-0.7,13.9-2.9l-2.4-2.4l2.4-3.5c0.4-0.6,0.3-1.3-0.3-1.7C35.4,50.5,35.3,50.4,35.1,50.4z"/>
	<path d="M52.5,20.8c0.4,0.2,0.9,0.2,1.2-0.2l0,0c0.9-0.9,2-1.3,3.2-1.3h0c1.2,0,2.3,0.5,3.2,1.3c0.2,0.2,0.4,0.3,0.7,0.3   c0.1,0,0.2,0,0.3,0c0.4-0.1,0.6-0.4,0.7-0.8C63.1,11.4,57,3.3,48.2,2.1S31.4,6.9,30.2,15.7c-0.2,1.5-0.2,3,0,4.5   c0.1,0.5,0.6,0.9,1.1,0.9c0.2,0,0.4-0.1,0.6-0.3c0.8-0.9,2-1.3,3.2-1.3h0c1.2,0,2.4,0.5,3.2,1.3l0,0c0.3,0.3,0.8,0.4,1.2,0.2   c1.7-1,3.6-1.5,5.5-1.7V31h-1.5c-0.5,0-0.9,0.3-1,0.8l-0.9,4.1c0,0.1-0.1,0.2-0.2,0.2c-0.1,0-0.2,0-0.2,0l-3.5-2.4   c-0.4-0.3-0.9-0.2-1.3,0.1l-1.7,1.7c-1.7-1.5-3.4-3-5.2-4.3C29.4,31.1,29.2,31,29,31l5.8-7.4c0.3-0.4,0.3-1.1-0.2-1.4   C34.4,22,34.1,22,33.8,22l-6.2,1.5l1.3-3.2c0.2-0.5,0-1.1-0.5-1.3c-0.2-0.1-0.5-0.1-0.8,0l-6.5,2.8l-5.5-3.7   c-0.5-0.3-1.1-0.2-1.4,0.3c-0.2,0.3-0.2,0.6-0.1,0.9l1.2,3.1l-5-1.4c-0.5-0.2-1.1,0.2-1.2,0.7C9,22,9,22.3,9.2,22.6l5.9,8.4H15   c-0.2,0-0.4,0.1-0.6,0.2C11.3,33.5,2,40.5,2,48c0,12.5,11.4,14,20,14c6,0,10.5-0.9,13.7-2.6l0.8,0.8c0.3,0.3,0.9,0.4,1.3,0.1   l3.5-2.4c0.1-0.1,0.3,0,0.3,0.1c0,0,0,0.1,0,0.1l0.9,4.1c0.1,0.5,0.5,0.8,1,0.8h5c0.5,0,0.9-0.3,1-0.8l0.9-4.1   c0-0.1,0.1-0.2,0.2-0.2c0.1,0,0.2,0,0.2,0l3.5,2.4c0.4,0.3,0.9,0.2,1.3-0.1l3.8-3.8c0.3-0.3,0.4-0.9,0.1-1.3l-2.4-3.5   c0-0.1-0.1-0.2,0-0.2c0-0.1,0.1-0.1,0.2-0.2l4.1-0.9c0.5-0.1,0.8-0.5,0.8-1v-5c0-0.5-0.3-0.9-0.8-1l-4.1-0.9   c-0.1,0-0.2-0.1-0.2-0.2c0-0.1,0-0.2,0-0.2l2.4-3.5c0.3-0.4,0.2-0.9-0.1-1.3l-3.8-3.8c-0.3-0.3-0.9-0.4-1.3-0.1l-3.5,2.4   c-0.1,0.1-0.3,0-0.3-0.1c0,0,0-0.1,0-0.1l-0.9-4.1c-0.1-0.5-0.5-0.8-1-0.8H47V19.2C48.9,19.3,50.8,19.9,52.5,20.8z M31.4,24.7   L26.5,31h-2l2.1-5.1L31.4,24.7z M20.4,23.8c0.3,0.2,0.6,0.2,0.9,0.1l4.7-2L22.3,31h-1.6l-3.6-9.4L20.4,23.8z M12.4,23.7l3.7,1.1   l2.4,6.2h-1L12.4,23.7z M22,60C9.6,60,4,56.3,4,48c0-4.3,3.8-9.3,11.3-15h2.3l-2.3,7.6c-0.4,1.3,0.3,2.6,1.6,3   c0.9,0.3,1.8,0,2.4-0.6l2.3-2.3l-1.4-1.4L18,41.6c-0.2,0.2-0.4,0.2-0.6,0c-0.1-0.1-0.2-0.3-0.1-0.4l2.4-8.1h2.5l1.8,8.2l2-0.4   L24.2,33h4.4c1.6,1.2,3.2,2.5,4.7,3.9l-0.6,0.6c-0.3,0.3-0.4,0.9-0.1,1.3l2.4,3.5c0,0.1,0.1,0.2,0,0.2c0,0.1-0.1,0.1-0.2,0.2   l-4.1,0.9c-0.5,0.1-0.8,0.5-0.8,1v5c0,0.5,0.3,0.9,0.8,1l4.1,0.9c0.1,0,0.2,0.1,0.2,0.2c0,0.1,0,0.2,0,0.2l-2.4,3.5   c-0.3,0.4-0.2,0.9,0.1,1.3l1.4,1.4C31.4,59.3,27.3,60,22,60z M48.4,36.3c0.3,1.2,1.4,2,2.7,1.7c0.3-0.1,0.6-0.2,0.8-0.3l2.8-1.9   l2.6,2.6l-1.9,2.8c-0.7,1-0.4,2.4,0.6,3.1c0.2,0.2,0.5,0.3,0.8,0.3l3.3,0.7v3.4l-3.3,0.7c-1.2,0.3-2,1.4-1.7,2.7   c0.1,0.3,0.2,0.6,0.3,0.8l1.9,2.8l-2.6,2.6l-2.8-1.9c-1-0.7-2.4-0.4-3.1,0.6c-0.2,0.2-0.3,0.5-0.3,0.8L47.7,61h-3.4l-0.7-3.3   c-0.3-1.2-1.4-2-2.7-1.7c-0.3,0.1-0.6,0.2-0.8,0.3l-2.8,1.9l-2.6-2.6l1.9-2.8c0.7-1,0.4-2.4-0.6-3.1c-0.2-0.2-0.5-0.3-0.8-0.3   L32,48.7v-3.4l3.3-0.7c1.2-0.3,2-1.4,1.7-2.7c-0.1-0.3-0.2-0.6-0.3-0.8l-1.9-2.8l2.6-2.6l2.8,1.9c1,0.7,2.4,0.4,3.1-0.6   c0.2-0.2,0.3-0.5,0.3-0.8l0.7-3.3h3.4L48.4,36.3z M60,18c0,0,0,0.1,0,0.1c-0.9-0.5-2-0.8-3-0.8c-1,0-2.1,0.2-3,0.7V18   c0-5.6-1.4-10.4-3.4-13.2C56.2,6.7,60,12,60,18z M35,17.4c-1,0-2.1,0.3-3,0.8c0,0,0-0.1,0-0.1c0-6,3.8-11.3,9.4-13.2   C39.4,7.6,38,12.4,38,18v0.1C37.1,17.6,36,17.4,35,17.4z M40,18c0-8.3,3.2-14,6-14s6,5.8,6,14v0.4c-3.8-1.7-8.2-1.7-12,0V18z"/>
	<path d="M53,47c0-1.2-0.3-2.4-0.9-3.5l-1.7,1c0.4,0.8,0.7,1.6,0.7,2.5H53z"/>
	<path d="M39,47c0,3.9,3.1,7,7,7c2.5,0,4.8-1.3,6.1-3.5l-1.7-1c-1.4,2.4-4.4,3.2-6.8,1.8s-3.2-4.4-1.8-6.8c1.4-2.4,4.4-3.2,6.8-1.8   c0.1,0.1,0.2,0.1,0.3,0.2l1.1-1.7c-3.2-2.1-7.6-1.3-9.7,2C39.4,44.3,39,45.6,39,47z"/>
	<path d="M23,46h-2v1.2c-1.6,0.5-2.4,2.3-1.8,3.8c0.4,1.2,1.6,2,2.8,2c0.6,0,1,0.4,1,1s-0.4,1-1,1h-3v2h2v1h2v-1.2   c1.6-0.5,2.4-2.3,1.8-3.8c-0.4-1.2-1.6-2-2.8-2c-0.6,0-1-0.4-1-1s0.4-1,1-1h3v-2h-2V46z"/>
</g>
</svg>
