<?xml version="1.0"?>
<svg xmlns="http://www.w3.org/2000/svg" viewBox="0 0 64 64" width="512" height="512"><path d="m37 47.688a5.687 5.687 0 0 0 -5.687-5.688h-5.313a3 3 0 0 1 -3 3h-6a3 3 0 0 1 -3-3h-5.312a5.687 5.687 0 0 0 -5.688 5.688v13.312h34z" fill="#d9d9d9"/><path d="m24.364 48.909a2 2 0 0 0 -2.523.25l-.427.427a2 2 0 0 0 0 2.828l4.586 4.586 4.586-4.586a2 2 0 0 0 0-2.828l-.427-.427a2 2 0 0 0 -2.523-.25l-1.636 1.091z" fill="#10bde0"/><path d="m15 36v5a1 1 0 0 1 -1 1 3 3 0 0 0 3 3h6a3 3 0 0 0 3-3 1 1 0 0 1 -1-1v-5a13.052 13.052 0 0 0 7.171-7.465 15.806 15.806 0 0 1 -2.714-13.27 15.525 15.525 0 0 0 -2.7-.263 15.924 15.924 0 0 0 -7.548 1.893 10.971 10.971 0 0 1 .779-1.922l-1.988-3.973-4 4-7 2v7a13 13 0 0 0 8 12z" fill="#fff5e0"/><path d="m18 11 1.986 3.971a10.919 10.919 0 0 1 12.3-5.664c.129-.168.264-.33.4-.493a8 8 0 0 0 -7.686-5.814h-10a8 8 0 0 0 -8 8v6l7-2z" fill="#6b4a08"/><path d="m45 3a15.939 15.939 0 0 0 -12.31 5.814c-.135.163-.27.325-.4.493a10.919 10.919 0 0 0 -12.3 5.664l.01.029-.014-.029a10.971 10.971 0 0 0 -.779 1.922 15.924 15.924 0 0 1 7.548-1.893 15.525 15.525 0 0 1 2.7.263 15.806 15.806 0 0 0 2.714 13.27 15.993 15.993 0 1 0 12.831-25.533z" fill="#74d5e8"/><path d="m40 16-1 14h12l-1-14z" fill="#e39d10"/><path d="m50 15h-1v-1a4 4 0 0 0 -8 0v1h-1a1 1 0 0 0 -1 .929l-1 14a1 1 0 0 0 1 1.071h12a1 1 0 0 0 1-1.071l-1-14a1 1 0 0 0 -1-.929zm-7-1a2 2 0 0 1 4 0v1h-4zm-2.926 15 .857-12h8.138l.857 12z"/><path d="m45 2a16.827 16.827 0 0 0 -11.97 4.963 9.034 9.034 0 0 0 -8.03-4.963h-10a9.011 9.011 0 0 0 -9 9v13a14 14 0 0 0 8 12.63v4.37h-5.312a6.7 6.7 0 0 0 -6.688 6.688v13.312a1 1 0 0 0 1 1h34a1 1 0 0 0 1-1v-13.312a6.7 6.7 0 0 0 -6.687-6.688h-5.313v-4.373a14.079 14.079 0 0 0 6.425-6.227 16.989 16.989 0 1 0 12.575-28.4zm-30 2h10a7.019 7.019 0 0 1 6.367 4.128 11.559 11.559 0 0 0 -1.612-.128 12.059 12.059 0 0 0 -9.672 4.929l-1.183-2.376a1 1 0 0 0 -.735-.54 1.01 1.01 0 0 0 -.867.28l-3.822 3.817-5.476 1.564v-4.674a7.008 7.008 0 0 1 7-7zm21 43.688v12.312h-32v-12.312a4.693 4.693 0 0 1 4.688-4.688h4.454a4 4 0 0 0 3.858 3h6a4 4 0 0 0 3.858-3h4.455a4.693 4.693 0 0 1 4.687 4.688zm-11.12-5.032a2 2 0 0 1 -1.88 1.344h-6a2 2 0 0 1 -1.88-1.344 2 2 0 0 0 .88-1.656v-3.59a13.754 13.754 0 0 0 8-.009v3.599a2 2 0 0 0 .88 1.656zm-4.88-6.656a12.013 12.013 0 0 1 -12-12v-6.246l6.275-1.793a.994.994 0 0 0 .432-.254l3.019-3.019 1.144 2.289a11.789 11.789 0 0 0 -.622 1.634 1 1 0 0 0 1.432 1.163 15.032 15.032 0 0 1 7.075-1.774 12.671 12.671 0 0 1 1.507.095 16.653 16.653 0 0 0 -.262 2.905 16.9 16.9 0 0 0 3.033 9.666 12.044 12.044 0 0 1 -11.033 7.334zm25-2a14.945 14.945 0 0 1 -14.57-18.5 1 1 0 0 0 -.8-1.218 16.349 16.349 0 0 0 -2.875-.282 17.042 17.042 0 0 0 -5.629.96 10.063 10.063 0 0 1 8.629-4.96 9.923 9.923 0 0 1 2.306.28 1 1 0 0 0 1.025-.366 14.993 14.993 0 1 1 11.914 24.086z"/><path d="m39 12v-2h-1v-1h-2v1h-1v2h1v1h2v-1z"/><path d="m55 16v1h-1v2h1v1h2v-1h1v-2h-1v-1z"/><path d="m51 11h2v2h-2z"/><path d="m44 6h2v2h-2z"/><path d="m26 48.8-1.081-.72a3.007 3.007 0 0 0 -3.785.374l-.427.427a3 3 0 0 0 0 4.242l4.586 4.586a1 1 0 0 0 1.414 0l4.586-4.586a3 3 0 0 0 0-4.242l-.427-.427a3.008 3.008 0 0 0 -3.785-.374zm3.452 1.068.427.427a1 1 0 0 1 0 1.414l-3.879 3.877-3.879-3.879a1 1 0 0 1 0-1.414l.427-.427a1 1 0 0 1 1.262-.124l1.635 1.09a1 1 0 0 0 1.11 0l1.635-1.09a1 1 0 0 1 1.262.124z"/><path d="m20 30.1a5.963 5.963 0 0 1 -4.2-1.714l-1.4 1.428a8 8 0 0 0 11.315-.114l-1.429-1.4a5.954 5.954 0 0 1 -4.286 1.8z"/><path d="m14 22h2v2h-2z"/><path d="m24 22h2v2h-2z"/></svg>
